<?xml version="1.0" encoding="utf-8"?>
<!-- Generator: Adobe Illustrator 17.1.0, SVG Export Plug-In . SVG Version: 6.00 Build 0)  -->
<!DOCTYPE svg PUBLIC "-//W3C//DTD SVG 1.1//EN" "http://www.w3.org/Graphics/SVG/1.1/DTD/svg11.dtd">
<svg version="1.1" id="Layer_1" xmlns="http://www.w3.org/2000/svg" xmlns:xlink="http://www.w3.org/1999/xlink" x="0px" y="0px"
	 viewBox="0 0 400 400" enable-background="new 0 0 400 400" xml:space="preserve">
<g>
	<ellipse fill="#EFEFEF" cx="200" cy="256.3" rx="196.7" ry="65"/>
	<g>
		<defs>
			<path id="SVGID_1_" d="M74.4,175.8c0,0-18,20.5-24.9,46.1s-9.2,32.2-14.5,38.8c-5.4,6.6-3.2,10.1,8.8,9.5s20.2-11.7,30.6-19.3
				c10.4-7.6,30.9-23,36.9-20.8s14.5,0.9,19.3,3.5c4.7,2.5,4.7,7.3-6.3,15.2s-15.8,8.8-16.7,11.4c0,0,9.2-3.2,12.6-2.8
				c0,0-1.6,2.2-1.3,5.1c0,0,8.8-6,17-6.3c0,0-0.3,1.6,0,3.2c0,0,5.4-5.4,7.9-8.5c2.5-3.2,2.2-9.8,4.4-10.7c2.2-0.9,3.8-3.5,3.8-3.5
				s7.9,0.6,12.6-0.3c0,0,2.5,11.4-1.9,14.8c-4.4,3.5-6.9,11.7-11.4,13.6c-4.4,1.9-10.1,5.4-11.4,10.4c0,0,4.7-3.5,10.1-3.5
				c0,0-2.5,3.8-2.5,6.3c0,0,7.9-2.8,12-5.7c0,0,3.3,1.6,5.8-1.3c0,0,5-1.9,8.1-7.9c0,0,8.2-6.9,11.7-17c3.5-10.1,8.5-17.4,8.2-23.7
				c0,0,8.5-2.8,8.5-8.2c0,0,4.4,0.3,6.6-1.6c0,0,5.7,0.6,9.2-2.5c0,0,6.9,0,9.5-2.2c0,0,3.5,0.9,6,0.9c0,0-3.8,11.4-8.8,15.2
				s-14.2,11.4-14.8,17.4c0,0,6-3.8,10.1-4.7c0,0,0,2.8,0.6,5.1c0,0,2.2-1.9,5.4-3.2c0,0,2.5,1.3,5.7-1.9c3.2-3.2,5.7-4.4,6.3-1.3
				c0,0,6.3-2.5,6.9-8.4c0.6-5.8,11-15.9,12.3-17.2c0,0,8.8,1.3,13.3,0.6c0,0,3.5,12,6,14.8c2.5,2.8-2.2,8.2-8.2,11
				c-6,2.8-15.5,8.5-17.4,13.9c0,0,6-2.5,11.4-3.2c0,0-1.6,3.2-1.6,4.4c0,0,6-2.5,12.3-3.8c0,0,5.7,1.3,9.5-1.9c0,0,0.3,3.2,1.6,5.1
				c0,0,4.7-3.5,7.3-5.4s2.8-13.9,5.4-16.7c2.5-2.8,8.5-14.5,8.5-16.4c0,0,6.6-0.1,9.4-1.4c0,0,3.8,0.2,4.8-1.9c0,0,1.9,0.8,3.4,0.4
				c0,0,1.5,3.6,3.6,4.4c0,0,1.5,5.5,3.8,7.6c0,0,2.1,8.2,5.3,10.7c0,0,1.7,5.1,3.8,6.5c0,0-0.2,3.6,1.1,5.1c0,0-1.1,3.2,0,5.3
				c0,0-2.5,2.3-2.5,4.4c0,0-5.3,1.9-6.7,4.4c0,0-4.2,1.3-6.1,3.2c0,0-6.7,1.5-9,3.6c0,0-6.5,1.5-9.7,4.2c0,0-6.1,0.2-9.5,3.8
				c0,0-6.7,1.1-10.7,2.9c-4,1.9-12.6,3.6-15.4,4.4c-2.7,0.8-15.2,3.4-19.4,5.5s-9.9,5.9,4.4,2.1s14.5-1.9,18.1-2.3
				c3.6-0.4,10.5-1.5,13.9-3.2c3.4-1.7,12-1.1,14.7-3.6c0,0,6.3-0.6,10.7-3.2c0,0,6.7-0.6,11.2-2.5c0,0,4.4,0.6,7.6-1.3
				c3.2-1.9,6.3-1.7,8.4-4c0,0,4-1.5,5.3-2.9c0,0,4-1.1,6.1-4.4c0,0,3.4-2.3,4.8-7.4c0,0,2.5-2.7,2.1-7.8c0,0,1.5-5.5-1.9-11.2
				c0,0,1.3-7.2-1.5-10.9c0,0,0.2-4.8-2.1-7.2c0,0,0.6-6.7-4.6-10.3c0,0,0-10.3-7.4-12.6c0,0,1.3-7.8-6.9-14.3
				c0,0,3.8-30.1-12.6-43.8c-16.4-13.7-37.5-33-86.1-46.7c0,0-3.4-2.3-10.7-2.9c0,0-4.4-4.2-13.9-4c0,0-6.7-3.4-17-1.5
				c0,0-8.6-2.1-18.7,0.8c0,0-10.1-1.7-16.4,3.4c0,0-12.4-1.1-18.1,5.7c0,0-37,5.9-56.8,59.1c0,0-9.9-9.3-19.4-7.6
				c-9.5,1.7,0,13,0,13s-4.6-7.4-12.6-6.7s8,4,10.9,13.9c2.3,4.9,10.3,9.5,11.6,10.7S74.4,175.8,74.4,175.8z"/>
		</defs>
		<clipPath id="SVGID_2_">
			<use xlink:href="#SVGID_1_"  overflow="visible"/>
		</clipPath>
		<polygon clip-path="url(#SVGID_2_)" fill="#C1272D" points="416.2,450.8 162.4,450.8 162.4,315.6 162.4,286.8 162.4,244.3 
			162.4,169 416.2,169 		"/>
		<rect x="162.4" y="-104.1" clip-path="url(#SVGID_2_)" fill="#FFFFF5" width="253.8" height="273.1"/>
		<rect x="-88.9" y="34.6" clip-path="url(#SVGID_2_)" fill="#00558D" width="253.8" height="277.4"/>
		<polygon clip-path="url(#SVGID_2_)" fill="#FFFFF5" points="132.3,175.7 150.3,162.6 128.1,162.6 121.2,141.4 114.3,162.6 
			91,162.6 109.9,176.1 103.1,197 121,184 139.3,197 		"/>
		<polygon clip-path="url(#SVGID_2_)" fill="#C1272D" points="160.4,242.9 133.4,269.5 149.3,293.4 179.9,274.4 172.3,242.9 		"/>
	</g>
</g>
</svg>
