<?xml version="1.0" encoding="utf-8"?>
<!-- Generator: Adobe Illustrator 17.1.0, SVG Export Plug-In . SVG Version: 6.00 Build 0)  -->
<!DOCTYPE svg PUBLIC "-//W3C//DTD SVG 1.1//EN" "http://www.w3.org/Graphics/SVG/1.1/DTD/svg11.dtd">
<svg version="1.1" id="Layer_1" xmlns="http://www.w3.org/2000/svg" xmlns:xlink="http://www.w3.org/1999/xlink" x="0px" y="0px"
	 viewBox="0 0 400 400" enable-background="new 0 0 400 400" xml:space="preserve">
<g>
	
		<path fill="none" stroke="#C1272D" stroke-width="2.9517" stroke-linecap="round" stroke-linejoin="round" stroke-miterlimit="10" d="
		M58.6,190.6c0,0-21,24-29.1,53.9s-10.7,37.6-17,45.4c-6.3,7.7-3.7,11.8,10.3,11.1s23.6-13.7,35.8-22.5s36.2-26.9,43.2-24.4
		c7,2.6,17,1.1,22.5,4.1c5.5,3,5.5,8.5-7.4,17.7s-18.4,10.3-19.6,13.3c0,0,10.7-3.7,14.8-3.3c0,0-1.8,2.6-1.5,5.9
		c0,0,10.3-7,19.9-7.4c0,0-0.4,1.8,0,3.7c0,0,6.3-6.3,9.2-10c3-3.7,2.6-11.4,5.2-12.5c2.6-1.1,4.4-4.1,4.4-4.1s9.2,0.7,14.8-0.4
		c0,0,3,13.3-2.2,17.3s-8.1,13.7-13.3,15.9s-11.8,6.3-13.3,12.2c0,0,5.5-4.1,11.8-4.1c0,0-3,4.4-3,7.4c0,0,9.2-3.3,14-6.6
		c0,0,3.9,1.8,6.7-1.5c0,0,5.8-2.2,9.5-9.2c0,0,9.6-8.1,13.7-19.9c4.1-11.8,10-20.3,9.6-27.7c0,0,10-3.3,10-9.6c0,0,5.2,0.4,7.7-1.8
		c0,0,6.6,0.7,10.7-3c0,0,8.1,0,11.1-2.6c0,0,4.1,1.1,7,1.1c0,0-4.4,13.3-10.3,17.7c-5.9,4.4-16.6,13.3-17.3,20.3
		c0,0,7-4.4,11.8-5.5c0,0,0,3.3,0.7,5.9c0,0,2.6-2.2,6.3-3.7c0,0,3,1.5,6.6-2.2c3.7-3.7,6.6-5.2,7.4-1.5c0,0,7.4-3,8.1-9.8
		s12.9-18.6,14.4-20.1c0,0,10.3,1.5,15.5,0.7c0,0,4.1,14,7,17.3c3,3.3-2.6,9.6-9.6,12.9c-7,3.3-18.1,10-20.3,16.2c0,0,7-3,13.3-3.7
		c0,0-1.8,3.7-1.8,5.2c0,0,7-3,14.4-4.4c0,0,6.6,1.5,11.1-2.2c0,0,0.4,3.7,1.8,5.9c0,0,5.5-4.1,8.5-6.3c3-2.2,3.3-16.2,6.3-19.6
		c3-3.3,10-17,10-19.2c0,0,7.7-0.1,10.9-1.6c0,0,4.4,0.2,5.7-2.2c0,0,2.2,1,3.9,0.5c0,0,1.7,4.2,4.2,5.2c0,0,1.7,6.4,4.4,8.9
		c0,0,2.5,9.6,6.1,12.5c0,0,2,5.9,4.4,7.6c0,0-0.2,4.2,1.2,5.9c0,0-1.2,3.7,0,6.1c0,0-3,2.7-3,5.2c0,0-6.1,2.2-7.9,5.2
		c0,0-4.9,1.5-7.1,3.7c0,0-7.9,1.7-10.6,4.2c0,0-7.6,1.7-11.3,4.9c0,0-7.1,0.2-11.1,4.4c0,0-7.9,1.2-12.5,3.4
		c-4.7,2.2-14.8,4.2-18,5.2c-3.2,1-17.7,3.9-22.6,6.4s-11.6,6.9,5.2,2.5c16.7-4.4,17-2.2,21.2-2.7s12.3-1.7,16.2-3.7
		c3.9-2,14-1.2,17.2-4.2c0,0,7.4-0.7,12.5-3.7c0,0,7.9-0.7,13-3c0,0,5.2,0.7,8.9-1.5s7.4-2,9.8-4.7c0,0,4.7-1.7,6.1-3.4
		c0,0,4.7-1.2,7.1-5.2c0,0,3.9-2.7,5.7-8.6c0,0,3-3.2,2.5-9.1c0,0,1.7-6.4-2.2-13c0,0,1.5-8.4-1.7-12.8c0,0,0.2-5.7-2.5-8.4
		c0,0,0.7-7.9-5.4-12.1c0,0,0-12.1-8.6-14.8c0,0,1.5-9.1-8.1-16.7c0,0,4.4-35.2-14.8-51.2c-19.2-16-43.8-38.6-100.6-54.6
		c0,0-3.9-2.7-12.5-3.4c0,0-5.2-4.9-16.2-4.7c0,0-7.9-3.9-19.9-1.7c0,0-10.1-2.5-21.9,1c0,0-11.8-2-19.2,3.9c0,0-14.5-1.2-21.2,6.6
		c0,0-43.3,6.9-66.4,69.1c0,0-11.6-10.8-22.6-8.9s0,15.3,0,15.3s-5.4-8.6-14.8-7.9c-9.3,0.7,9.3,4.7,12.8,16.2
		c2.6,5.7,12.1,11.1,13.5,12.5S58.6,190.6,58.6,190.6z"/>
	
		<line fill="none" stroke="#C1272D" stroke-width="2.9517" stroke-linecap="round" stroke-linejoin="round" stroke-miterlimit="10" x1="149.4" y1="261.5" x2="149.4" y2="84.2"/>
	
		<line fill="none" stroke="#C1272D" stroke-width="2.9517" stroke-linecap="round" stroke-linejoin="round" stroke-miterlimit="10" x1="149.4" y1="172.8" x2="360.1" y2="172.8"/>
	
		<polygon fill="none" stroke="#C1272D" stroke-width="2.9517" stroke-linecap="round" stroke-linejoin="round" stroke-miterlimit="10" points="
		117.4,185.2 134,173.1 113.4,173.1 107,153.4 100.6,173.1 79,173.1 96.5,185.6 90.2,205 106.8,192.9 123.8,205 	"/>
</g>
</svg>
