<?xml version="1.0" encoding="utf-8"?>
<!-- Generator: Adobe Illustrator 17.1.0, SVG Export Plug-In . SVG Version: 6.00 Build 0)  -->
<!DOCTYPE svg PUBLIC "-//W3C//DTD SVG 1.1//EN" "http://www.w3.org/Graphics/SVG/1.1/DTD/svg11.dtd">
<svg version="1.1" id="Layer_1" xmlns="http://www.w3.org/2000/svg" xmlns:xlink="http://www.w3.org/1999/xlink" x="0px" y="0px"
	 viewBox="0 0 400 300" enable-background="new 0 0 400 300" xml:space="preserve">
<g>
	<g>
		<path fill="#1CE1DB" d="M345.4,214.2L263,49.3c-0.1-0.1-0.2-0.2-0.4-0.3c-0.2,0-0.3,0-0.4,0.1l-21.4,21.4c-0.2,0-0.3,0.2-0.4,0.3
			l-34.9,68.7l-45.1-90.1c-0.1-0.1-0.2-0.2-0.4-0.3c-0.2,0-0.3,0-0.4,0.1l-21.4,21.4c-0.2,0-0.3,0.2-0.4,0.3L55,236
			c-0.1,0.2-0.1,0.4,0,0.6c0.1,0.2,0.3,0.3,0.5,0.3h114.8c0.2,0,0.4-0.1,0.5-0.3c0-0.1,0.1-0.1,0.1-0.2l10.8-10.8l5.4,10.8
			c0.1,0.2,0.3,0.3,0.5,0.3h135.6c0,0,0,0,0,0c0.3,0,0.5-0.2,0.6-0.5l21.4-21.4C345.5,214.6,345.5,214.4,345.4,214.2z M124.3,185.2
			l-19.1,19.1l7.9-15.9l8.2-6.6c0.2-0.2,0.3-0.5,0.1-0.7c-0.2-0.2-0.5-0.3-0.7-0.1l-6.5,5.2l12.7-25.5l7.9-4
			c0.2-0.1,0.3-0.4,0.2-0.7c-0.1-0.2-0.4-0.3-0.7-0.2l-6.7,3.4l10.6-21.1l4.8,9.6L124.3,185.2z M143.6,148.9l18,36.1h-36
			L143.6,148.9z M225,169.8l6.8-4.5c0.2-0.2,0.3-0.5,0.1-0.7c-0.2-0.2-0.5-0.3-0.7-0.1l-5.3,3.5l15-29.8l4.8,9.5l-10.5,21
			l-10.5,10.5c0,0,0,0,0,0l-8.6,8.6L225,169.8z M235.9,169.4c0,0,0.1-0.1,0.1-0.1l10.2-20.4l18,36h-36.1l-2.6-5.1L235.9,169.4z
			 M228,185.8h20.3l-5,5.9c-0.2,0.2-0.2,0.5,0.1,0.7c0.1,0.1,0.2,0.1,0.3,0.1c0.1,0,0.3-0.1,0.4-0.2l5.6-6.6h15.2l10.3,20.5h-12.2
			l3.6-4.3c0.2-0.2,0.2-0.5-0.1-0.7c-0.2-0.2-0.5-0.2-0.7,0.1l-4.1,4.9h-45.2l5.6-4.2c0.2-0.2,0.3-0.5,0.1-0.7
			c-0.2-0.2-0.5-0.3-0.7-0.1l-6.7,5h-7.3L228,185.8z M155.7,206.5h-51.3L125,186h37.1l4.7,9.4L155.7,206.5z M159.8,50.5L175.5,82
			l-7.1,5.8c-0.2,0.2-0.2,0.5-0.1,0.7c0.1,0.1,0.2,0.2,0.4,0.2c0.1,0,0.2,0,0.3-0.1l6.9-5.7l29,57.8l-8.3,16.3
			c-0.1,0.2-0.1,0.4,0,0.5l4.6,9.2l-4.8,5.4c-0.2,0.2-0.2,0.5,0,0.7c0.1,0.1,0.2,0.1,0.3,0.1c0.1,0,0.3-0.1,0.4-0.2l4.5-5.1
			l11.6,23.2c0.1,0.2,0.3,0.3,0.5,0.3c0,0,0,0,0,0c0.2,0,0.4-0.1,0.5-0.3l0.1-0.2l10.3-10.3l2.4,4.8l-20.9,20.7l-8.7-17.4l6.7-3.1
			c0.3-0.1,0.4-0.4,0.2-0.7c-0.1-0.3-0.4-0.4-0.7-0.2l-6.7,3.1l-13.6-27.2l9.7-7.8c0.2-0.2,0.3-0.5,0.1-0.7
			c-0.2-0.2-0.5-0.3-0.7-0.1l-9.5,7.6L168.8,131l7.6-7.1c0.2-0.2,0.2-0.5,0-0.7c-0.2-0.2-0.5-0.2-0.7,0l-7.4,6.9L139,71.3
			L159.8,50.5z M170.6,235.3l-14.1-28.2l10.8-10.8l4.4,8.9l-5.4,5.4c-0.2,0.2-0.2,0.5,0,0.7c0.1,0.1,0.2,0.1,0.4,0.1
			c0.1,0,0.3,0,0.4-0.1l5.2-5.2l9.2,18.4L170.6,235.3z M323.6,235.1L306,200l6.2-6.2c0.2-0.2,0.2-0.5,0-0.7c-0.2-0.2-0.5-0.2-0.7,0
			l-6,5.9l-15.9-31.7l4.8-4.4c0.2-0.2,0.2-0.5,0-0.7c-0.2-0.2-0.5-0.2-0.7,0l-4.5,4.2l-24.4-48.9l13.3-10.4c0.2-0.2,0.3-0.5,0.1-0.7
			c-0.2-0.2-0.5-0.3-0.7-0.1l-13.2,10.2l-22.7-45.4l20.8-20.8l4.8,9.6l-9.8,8.3c-0.2,0.2-0.2,0.5-0.1,0.7c0.1,0.1,0.2,0.2,0.4,0.2
			c0.1,0,0.2,0,0.3-0.1l9.6-8.1l22.9,45.8l-6.5,6.9c-0.2,0.2-0.2,0.5,0,0.7c0.1,0.1,0.2,0.1,0.3,0.1c0.1,0,0.3-0.1,0.4-0.2l6.2-6.6
			l22.3,44.5l-6.3,6c-0.2,0.2-0.2,0.5,0,0.7c0.1,0.1,0.2,0.2,0.4,0.2c0.1,0,0.3,0,0.3-0.1l6-5.8l30.6,61.3L323.6,235.1z"/>
		<path fill="#1CE1DB" d="M145.7,73.4c0.1,0.1,0.3,0.2,0.4,0.2c0.1,0,0.2,0,0.3-0.1L153,69c0.2-0.2,0.3-0.5,0.1-0.7
			c-0.2-0.2-0.5-0.3-0.7-0.1l-6.6,4.5C145.6,72.8,145.5,73.1,145.7,73.4z"/>
		<path fill="#1CE1DB" d="M152.3,73.2c0.1,0.2,0.3,0.3,0.5,0.3c0.1,0,0.1,0,0.2,0l6.9-2.3c0.3-0.1,0.4-0.4,0.3-0.6
			c-0.1-0.3-0.4-0.4-0.6-0.3l-6.9,2.3C152.3,72.7,152.2,73,152.3,73.2z"/>
		<path fill="#1CE1DB" d="M162.7,99.6c0.1,0,0.2,0,0.3-0.1l6-3.9c0.2-0.2,0.3-0.5,0.1-0.7c-0.2-0.2-0.5-0.3-0.7-0.1l-6,3.9
			c-0.2,0.2-0.3,0.5-0.1,0.7C162.4,99.5,162.5,99.6,162.7,99.6z"/>
		<path fill="#1CE1DB" d="M169.9,124.1c0.1,0,0.3-0.1,0.4-0.2l7.5-8.2c0.2-0.2,0.2-0.5,0-0.7c-0.2-0.2-0.5-0.2-0.7,0l-7.5,8.2
			c-0.2,0.2-0.2,0.5,0,0.7C169.7,124,169.8,124.1,169.9,124.1z"/>
		<path fill="#1CE1DB" d="M184.7,139.6c0.1,0,0.2,0,0.3-0.1l8.2-6.6c0.2-0.2,0.3-0.5,0.1-0.7c-0.2-0.2-0.5-0.3-0.7-0.1l-8.2,6.6
			c-0.2,0.2-0.3,0.5-0.1,0.7C184.4,139.6,184.6,139.6,184.7,139.6z"/>
		<path fill="#1CE1DB" d="M146.4,191.7c-0.2-0.2-0.5-0.2-0.7,0l-7.9,7.9c-0.2,0.2-0.2,0.5,0,0.7c0.1,0.1,0.2,0.1,0.4,0.1
			c0.1,0,0.3,0,0.4-0.1l7.9-7.9C146.6,192.2,146.6,191.9,146.4,191.7z"/>
		<path fill="#1CE1DB" d="M153.1,190.2c-0.2-0.2-0.5-0.2-0.7-0.1l-6.6,5.8c-0.2,0.2-0.2,0.5-0.1,0.7c0.1,0.1,0.2,0.2,0.4,0.2
			c0.1,0,0.2,0,0.3-0.1l6.6-5.8C153.3,190.8,153.3,190.4,153.1,190.2z"/>
		<path fill="#1CE1DB" d="M172,213.8l-4.6,5.1c-0.2,0.2-0.2,0.5,0,0.7c0.1,0.1,0.2,0.1,0.3,0.1c0.1,0,0.3-0.1,0.4-0.2l4.6-5.1
			c0.2-0.2,0.2-0.5,0-0.7C172.6,213.6,172.2,213.6,172,213.8z"/>
		<path fill="#1CE1DB" d="M124.4,197.4l-7.4,6.5c-0.2,0.2-0.2,0.5,0,0.7c0.1,0.1,0.2,0.2,0.4,0.2c0.1,0,0.2,0,0.3-0.1l7.4-6.5
			c0.2-0.2,0.2-0.5,0-0.7C125,197.3,124.6,197.3,124.4,197.4z"/>
		<path fill="#1CE1DB" d="M126.8,172l-6,3.3c-0.2,0.1-0.3,0.4-0.2,0.7c0.1,0.2,0.3,0.3,0.4,0.3c0.1,0,0.2,0,0.2-0.1l6-3.3
			c0.2-0.1,0.3-0.4,0.2-0.7C127.4,172,127.1,171.9,126.8,172z"/>
		<path fill="#1CE1DB" d="M233.7,159c0.1,0,0.2,0,0.3-0.1l5.4-4.8c0.2-0.2,0.2-0.5,0-0.7s-0.5-0.2-0.7,0l-5.4,4.8
			c-0.2,0.2-0.2,0.5,0,0.7C233.4,158.9,233.5,159,233.7,159z"/>
		<path fill="#1CE1DB" d="M243.6,198.3c0.1,0,0.2,0,0.3-0.1l5.7-4.4c0.2-0.2,0.3-0.5,0.1-0.7c-0.2-0.2-0.5-0.3-0.7-0.1l-5.7,4.4
			c-0.2,0.2-0.3,0.5-0.1,0.7C243.3,198.2,243.5,198.3,243.6,198.3z"/>
		<path fill="#1CE1DB" d="M253.9,200.4c0.1,0,0.2,0,0.3-0.1l7.5-6.5c0.2-0.2,0.2-0.5,0.1-0.7c-0.2-0.2-0.5-0.2-0.7-0.1l-7.5,6.5
			c-0.2,0.2-0.2,0.5-0.1,0.7C253.6,200.4,253.8,200.4,253.9,200.4z"/>
		<path fill="#1CE1DB" d="M315.8,201.4c0.1,0.1,0.2,0.1,0.4,0.1c0.1,0,0.3-0.1,0.4-0.2l10.3-10.5c0.2-0.2,0.2-0.5,0-0.7
			c-0.2-0.2-0.5-0.2-0.7,0l-10.3,10.5C315.6,200.9,315.6,201.2,315.8,201.4z"/>
		<path fill="#1CE1DB" d="M326.1,221.5l-5.1,2.7c-0.2,0.1-0.3,0.4-0.2,0.7c0.1,0.2,0.3,0.3,0.4,0.3c0.1,0,0.2,0,0.2-0.1l5.1-2.7
			c0.2-0.1,0.3-0.4,0.2-0.7C326.7,221.5,326.4,221.4,326.1,221.5z"/>
		<path fill="#1CE1DB" d="M326,211.5c0.1,0.1,0.2,0.1,0.3,0.1c0.1,0,0.3-0.1,0.4-0.2l6.3-6.8c0.2-0.2,0.2-0.5,0-0.7
			c-0.2-0.2-0.5-0.2-0.7,0l-6.3,6.8C325.8,211,325.8,211.3,326,211.5z"/>
		<path fill="#1CE1DB" d="M311.6,162.1l-6.6,4.8c-0.2,0.2-0.3,0.5-0.1,0.7c0.1,0.1,0.3,0.2,0.4,0.2c0.1,0,0.2,0,0.3-0.1l6.6-4.8
			c0.2-0.2,0.3-0.5,0.1-0.7C312.1,162,311.8,161.9,311.6,162.1z"/>
		<path fill="#1CE1DB" d="M293.7,135.5l-4.2,4.1c-0.2,0.2-0.2,0.5,0,0.7c0.1,0.1,0.2,0.2,0.4,0.2c0.1,0,0.3,0,0.4-0.1l4.2-4.1
			c0.2-0.2,0.2-0.5,0-0.7C294.2,135.3,293.9,135.3,293.7,135.5z"/>
		<path fill="#1CE1DB" d="M293.8,141.2l-8.5,4.5c-0.2,0.1-0.3,0.4-0.2,0.7c0.1,0.2,0.3,0.3,0.4,0.3c0.1,0,0.2,0,0.2-0.1l8.5-4.5
			c0.2-0.1,0.3-0.4,0.2-0.7C294.4,141.2,294.1,141.1,293.8,141.2z"/>
		<path fill="#1CE1DB" d="M288.1,116.9c-0.2-0.2-0.5-0.2-0.7-0.1l-10,8.5c-0.2,0.2-0.2,0.5-0.1,0.7c0.1,0.1,0.2,0.2,0.4,0.2
			c0.1,0,0.2,0,0.3-0.1l10-8.5C288.3,117.4,288.3,117.1,288.1,116.9z"/>
		<path fill="#1CE1DB" d="M273.2,81.7l-5.7,4.3c-0.2,0.2-0.3,0.5-0.1,0.7c0.1,0.1,0.3,0.2,0.4,0.2c0.1,0,0.2,0,0.3-0.1l5.7-4.3
			c0.2-0.2,0.3-0.5,0.1-0.7C273.8,81.6,273.4,81.5,273.2,81.7z"/>
		<path fill="#1CE1DB" d="M273.3,89.3l-9.8,5.4c-0.2,0.1-0.3,0.4-0.2,0.7c0.1,0.2,0.3,0.3,0.4,0.3c0.1,0,0.2,0,0.2-0.1l9.8-5.4
			c0.2-0.1,0.3-0.4,0.2-0.7C273.8,89.2,273.5,89.1,273.3,89.3z"/>
		<path fill="#1CE1DB" d="M266.4,70.6c-0.1-0.3-0.4-0.4-0.7-0.2l-13.6,6.2c-0.3,0.1-0.4,0.4-0.2,0.7c0.1,0.2,0.3,0.3,0.5,0.3
			c0.1,0,0.1,0,0.2,0l13.6-6.2C266.4,71.2,266.5,70.9,266.4,70.6z"/>
	</g>
	<g>
		<polygon fill="#1CE1DB" points="134,185 137.7,176.3 139.4,178.6 144.6,178.8 145.6,176.3 150.1,185 		"/>
	</g>
	<g>
		<circle fill="#FFFFFF" cx="138.6" cy="181.7" r="0.7"/>
	</g>
	<g>
		<circle fill="#FFFFFF" cx="144.9" cy="181.7" r="0.7"/>
	</g>
	<g>
		<polygon fill="#1CE1DB" points="388.6,195.9 381,167.7 373.4,195.9 379.5,195.9 379.5,202.3 382.5,202.3 382.5,195.9 		"/>
	</g>
	<g>
		<polygon fill="#1CE1DB" points="339,157 334.4,140 329.9,157 333.5,157 333.5,160.9 335.4,160.9 335.4,157 		"/>
	</g>
	<g>
		<polygon fill="#1CE1DB" points="41.4,163.7 36.8,146.6 32.2,163.7 35.9,163.7 35.9,167.5 37.7,167.5 37.7,163.7 		"/>
	</g>
	<g>
		<polygon fill="#1CE1DB" points="364.5,178.9 358.6,157.1 352.8,178.9 357.5,178.9 357.5,183.9 359.8,183.9 359.8,178.9 		"/>
	</g>
	<g>
		<polygon fill="#1CE1DB" points="76.4,172.6 69.6,147.5 62.9,172.6 68.3,172.6 68.3,178.3 71,178.3 71,172.6 		"/>
	</g>
	<g>
		<polygon fill="#1CE1DB" points="58.1,204.1 52.2,182.2 46.3,204.1 51,204.1 51,209.1 53.3,209.1 53.3,204.1 		"/>
	</g>
	<g>
		<polygon fill="#1CE1DB" points="18.4,193.5 12.5,171.6 6.6,193.5 11.3,193.5 11.3,198.5 13.7,198.5 13.7,193.5 		"/>
	</g>
	<g>
		<polygon fill="#1CE1DB" points="368.5,235.6 358.6,199 348.8,235.6 356.7,235.6 356.7,243.9 360.6,243.9 360.6,235.6 		"/>
	</g>
	<g>
		<polygon fill="#1CE1DB" points="41.4,236.2 29.9,193.5 18.4,236.2 27.6,236.2 27.6,246 32.2,246 32.2,236.2 		"/>
	</g>
	<g>
		<path fill="#1CE1DB" d="M24,184.5c-0.3,0-0.6-0.3-0.6-0.6v-3c0-0.3,0.3-0.6,0.6-0.6s0.6,0.3,0.6,0.6v3
			C24.6,184.2,24.3,184.5,24,184.5z"/>
	</g>
	<g>
		<path fill="#1CE1DB" d="M29.9,178.3c-0.3,0-0.6-0.3-0.6-0.6v-3c0-0.3,0.3-0.6,0.6-0.6s0.6,0.3,0.6,0.6v3
			C30.4,178.1,30.2,178.3,29.9,178.3z"/>
	</g>
	<g>
		<path fill="#1CE1DB" d="M41.4,189.8c-0.3,0-0.6-0.3-0.6-0.6v-3c0-0.3,0.3-0.6,0.6-0.6c0.3,0,0.6,0.3,0.6,0.6v3
			C41.9,189.5,41.7,189.8,41.4,189.8z"/>
	</g>
	<g>
		<path fill="#1CE1DB" d="M46.3,248.1c-0.3,0-0.6-0.3-0.6-0.6v-3c0-0.3,0.3-0.6,0.6-0.6c0.3,0,0.6,0.3,0.6,0.6v3
			C46.9,247.8,46.6,248.1,46.3,248.1z"/>
	</g>
	<g>
		<path fill="#1CE1DB" d="M328.2,171.3c-0.3,0-0.6-0.3-0.6-0.6v-3c0-0.3,0.3-0.6,0.6-0.6c0.3,0,0.6,0.3,0.6,0.6v3
			C328.8,171,328.5,171.3,328.2,171.3z"/>
	</g>
	<g>
		<path fill="#1CE1DB" d="M343.4,231.6c-0.3,0-0.6-0.3-0.6-0.6v-3c0-0.3,0.3-0.6,0.6-0.6s0.6,0.3,0.6,0.6v3
			C344,231.3,343.7,231.6,343.4,231.6z"/>
	</g>
	<g>
		<path fill="#1CE1DB" d="M350.6,195.6c-0.3,0-0.6-0.3-0.6-0.6v-3c0-0.3,0.3-0.6,0.6-0.6s0.6,0.3,0.6,0.6v3
			C351.2,195.3,350.9,195.6,350.6,195.6z"/>
	</g>
	<g>
		<path fill="#1CE1DB" d="M372.3,154c-0.3,0-0.6-0.3-0.6-0.6v-3c0-0.3,0.3-0.6,0.6-0.6s0.6,0.3,0.6,0.6v3
			C372.9,153.7,372.6,154,372.3,154z"/>
	</g>
	<g>
		<path fill="#1CE1DB" d="M339,245.9c-0.3,0-0.6-0.3-0.6-0.6v-3c0-0.3,0.3-0.6,0.6-0.6c0.3,0,0.6,0.3,0.6,0.6v3
			C339.6,245.7,339.3,245.9,339,245.9z"/>
	</g>
	<g>
		<path fill="#1CE1DB" d="M323.8,247.4c-0.3,0-0.6-0.3-0.6-0.6v-3c0-0.3,0.3-0.6,0.6-0.6s0.6,0.3,0.6,0.6v3
			C324.4,247.2,324.1,247.4,323.8,247.4z"/>
	</g>
	<g>
		<path fill="#1CE1DB" d="M333.2,176.2c-0.3,0-0.6-0.3-0.6-0.6v-3c0-0.3,0.3-0.6,0.6-0.6s0.6,0.3,0.6,0.6v3
			C333.8,175.9,333.5,176.2,333.2,176.2z"/>
	</g>
	<g>
		<path fill="#1CE1DB" d="M370.3,213.6c-0.3,0-0.6-0.3-0.6-0.6v-3c0-0.3,0.3-0.6,0.6-0.6s0.6,0.3,0.6,0.6v3
			C370.9,213.4,370.6,213.6,370.3,213.6z"/>
	</g>
	<g>
		<path fill="#1CE1DB" d="M377.3,215.7c-0.3,0-0.6-0.3-0.6-0.6v-3c0-0.3,0.3-0.6,0.6-0.6s0.6,0.3,0.6,0.6v3
			C377.9,215.4,377.6,215.7,377.3,215.7z"/>
	</g>
	<g>
		<path fill="#1CE1DB" d="M393.4,206.9c-0.3,0-0.6-0.3-0.6-0.6v-3c0-0.3,0.3-0.6,0.6-0.6s0.6,0.3,0.6,0.6v3
			C393.9,206.6,393.7,206.9,393.4,206.9z"/>
	</g>
	<g>
		<path fill="#1CE1DB" d="M382,231.6c-0.3,0-0.6-0.3-0.6-0.6v-3c0-0.3,0.3-0.6,0.6-0.6c0.3,0,0.6,0.3,0.6,0.6v3
			C382.6,231.3,382.3,231.6,382,231.6z"/>
	</g>
	<g>
		<path fill="#1CE1DB" d="M373.4,176.2c-0.3,0-0.6-0.3-0.6-0.6v-3c0-0.3,0.3-0.6,0.6-0.6c0.3,0,0.6,0.3,0.6,0.6v3
			C374,175.9,373.8,176.2,373.4,176.2z"/>
	</g>
	<g>
		<path fill="#1CE1DB" d="M348.8,161c-0.3,0-0.6-0.3-0.6-0.6v-3c0-0.3,0.3-0.6,0.6-0.6s0.6,0.3,0.6,0.6v3
			C349.4,160.8,349.1,161,348.8,161z"/>
	</g>
	<g>
		<path fill="#1CE1DB" d="M47.8,225.4c-0.3,0-0.6-0.3-0.6-0.6v-3c0-0.3,0.3-0.6,0.6-0.6c0.3,0,0.6,0.3,0.6,0.6v3
			C48.4,225.1,48.1,225.4,47.8,225.4z"/>
	</g>
	<g>
		<path fill="#1CE1DB" d="M6.6,225.4c-0.3,0-0.6-0.3-0.6-0.6v-3c0-0.3,0.3-0.6,0.6-0.6s0.6,0.3,0.6,0.6v3
			C7.2,225.1,6.9,225.4,6.6,225.4z"/>
	</g>
	<g>
		<path fill="#1CE1DB" d="M52.2,251c-0.3,0-0.6-0.3-0.6-0.6v-3c0-0.3,0.3-0.6,0.6-0.6c0.3,0,0.6,0.3,0.6,0.6v3
			C52.7,250.8,52.5,251,52.2,251z"/>
	</g>
	<g>
		<path fill="#1CE1DB" d="M69.6,248.1c-0.3,0-0.6-0.3-0.6-0.6v-3c0-0.3,0.3-0.6,0.6-0.6s0.6,0.3,0.6,0.6v3
			C70.2,247.8,70,248.1,69.6,248.1z"/>
	</g>
	<g>
		<path fill="#1CE1DB" d="M12.5,244.5c-0.3,0-0.6-0.3-0.6-0.6v-3c0-0.3,0.3-0.6,0.6-0.6s0.6,0.3,0.6,0.6v3
			C13.1,244.2,12.8,244.5,12.5,244.5z"/>
	</g>
	<g>
		<path fill="#1CE1DB" d="M18.4,208.4c-0.3,0-0.6-0.3-0.6-0.6v-3c0-0.3,0.3-0.6,0.6-0.6s0.6,0.3,0.6,0.6v3
			C18.9,208.1,18.7,208.4,18.4,208.4z"/>
	</g>
	<g>
		<path fill="#1CE1DB" d="M69.6,197c-0.3,0-0.6-0.3-0.6-0.6v-3c0-0.3,0.3-0.6,0.6-0.6s0.6,0.3,0.6,0.6v3C70.2,196.7,70,197,69.6,197
			z"/>
	</g>
	<g>
		<path fill="#1CE1DB" d="M52.2,166.9c-0.3,0-0.6-0.3-0.6-0.6v-3c0-0.3,0.3-0.6,0.6-0.6c0.3,0,0.6,0.3,0.6,0.6v3
			C52.7,166.7,52.5,166.9,52.2,166.9z"/>
	</g>
	<g>
		<path fill="#1CE1DB" d="M84.4,151c-0.3,0-0.6-0.3-0.6-0.6v-3c0-0.3,0.3-0.6,0.6-0.6s0.6,0.3,0.6,0.6v3C85,150.7,84.7,151,84.4,151
			z"/>
	</g>
	<g>
		<path fill="#1CE1DB" d="M139.3,169.8c-0.3,0-0.6-0.3-0.6-0.6v-3c0-0.3,0.3-0.6,0.6-0.6c0.3,0,0.6,0.3,0.6,0.6v3
			C139.9,169.5,139.6,169.8,139.3,169.8z"/>
	</g>
	<g>
		<path fill="#1CE1DB" d="M150.1,176.2c-0.3,0-0.6-0.3-0.6-0.6v-3c0-0.3,0.3-0.6,0.6-0.6c0.3,0,0.6,0.3,0.6,0.6v3
			C150.7,175.9,150.5,176.2,150.1,176.2z"/>
	</g>
	<g>
		<path fill="#1CE1DB" d="M236.4,180.3c-0.3,0-0.6-0.3-0.6-0.6v-3c0-0.3,0.3-0.6,0.6-0.6c0.3,0,0.6,0.3,0.6,0.6v3
			C236.9,180.1,236.7,180.3,236.4,180.3z"/>
	</g>
	<g>
		<path fill="#1CE1DB" d="M251.9,174c-0.3,0-0.6-0.3-0.6-0.6v-3c0-0.3,0.3-0.6,0.6-0.6s0.6,0.3,0.6,0.6v3
			C252.4,173.7,252.2,174,251.9,174z"/>
	</g>
	<g>
		<path fill="#1CE1DB" d="M322.7,143.2c-0.3,0-0.6-0.3-0.6-0.6v-3c0-0.3,0.3-0.6,0.6-0.6s0.6,0.3,0.6,0.6v3
			C323.3,142.9,323,143.2,322.7,143.2z"/>
	</g>
	<g>
		<path fill="#1CE1DB" d="M352.8,138.9c-0.3,0-0.6-0.3-0.6-0.6v-3c0-0.3,0.3-0.6,0.6-0.6s0.6,0.3,0.6,0.6v3
			C353.3,138.6,353.1,138.9,352.8,138.9z"/>
	</g>
	<g>
		<path fill="#1CE1DB" d="M55,146c-0.3,0-0.6-0.3-0.6-0.6v-3c0-0.3,0.3-0.6,0.6-0.6c0.3,0,0.6,0.3,0.6,0.6v3
			C55.5,145.7,55.3,146,55,146z"/>
	</g>
	<g>
		<path fill="#1CE1DB" d="M18.4,159.1c-0.3,0-0.6-0.3-0.6-0.6v-3c0-0.3,0.3-0.6,0.6-0.6s0.6,0.3,0.6,0.6v3
			C18.9,158.9,18.7,159.1,18.4,159.1z"/>
	</g>
</g>
</svg>
