<?xml version="1.0" encoding="utf-8"?>
<!-- Generator: Adobe Illustrator 17.1.0, SVG Export Plug-In . SVG Version: 6.00 Build 0)  -->
<!DOCTYPE svg PUBLIC "-//W3C//DTD SVG 1.1//EN" "http://www.w3.org/Graphics/SVG/1.1/DTD/svg11.dtd">
<svg version="1.1" id="Layer_1" xmlns="http://www.w3.org/2000/svg" xmlns:xlink="http://www.w3.org/1999/xlink" x="0px" y="0px"
	 viewBox="0 0 400 400" enable-background="new 0 0 400 400" xml:space="preserve">
<path fill="#00558D" d="M128.3,365.8h6.4l4.5-9.6h17l4.2,9.6h6.4l-18.9-42.2L128.3,365.8z M141.8,350.4l6.1-13.4l5.8,13.4H141.8z
	 M90.6,322.9l7.4,42.6h-6.1l-3.8-24l-11.8,25.9l-11.5-25.9l-4.2,24h-6.1l8.3-42.6l13.8,30.7L90.6,322.9z M123.5,129.6L71,234.6h78.7
	l21.8,43.5H49.3H0L123.5,31.7L225,234.2h104.3l-52.5-104.6l-40.3,80.3l-25-49.9l65.3-128.6L400,277.8H197.4L123.5,129.6z
	 M278.4,326.1h6.4l-17.9,42.6l-17.3-42.6h6.4l10.9,27.5L278.4,326.1z M198.1,326.1h21.8v5.8h-16v9.6h15.4v5.8h-15.4v13.1h16v5.8
	h-21.8L198.1,326.1L198.1,326.1z M316.2,326.1h21.8v5.8h-16v9.6h15.4v5.8h-15.4v13.1h16v5.8h-21.8V326.1z"/>
</svg>
